<svg width="120" height="120" viewBox="0 0 120 120" fill="none" xmlns="http://www.w3.org/2000/svg">
<circle cx="60" cy="60" r="60" fill="white"/>
<path fill-rule="evenodd" clip-rule="evenodd" d="M61.1729 64H70.1927V95.2923L72.8839 96.4204V64.0393H113.333V66.5098H75.2995V100.103L70.1927 97.9623V102.482L51.5352 112V82.2878L41.36 88.0693V66.5098H6.66669V64.0393H43.7756V83.8707L51.5352 79.4617V64.0393H58.2896V78.45L53.9508 80.9153V108.007L67.7771 100.953V96.9498L61.1729 94.1815V64ZM67.7771 94.2798V66.4705H63.5884V92.5241L67.7771 94.2798ZM53.9508 78.0892L55.8741 76.9964V66.5098H53.9508V78.0892Z" fill="#676767"/>
<path fill-rule="evenodd" clip-rule="evenodd" d="M59.8102 64H68.6045V95.2923L71.2285 96.4204V64.0393H110.667V66.5098H73.5836V100.103L68.6045 97.9623V102.482L50.4135 112V82.2878L40.4927 88.0693V66.5098H6.66669V64.0393H42.8479V83.8707L50.4135 79.4617V64.0393H56.9991V78.45L52.7687 80.9153V108.007L66.2494 100.953V96.9498L59.8102 94.1815V64ZM66.2494 94.2798V66.4705H62.1654V92.5241L66.2494 94.2798ZM52.7687 78.0892L54.6439 76.9964V66.5098H52.7687V78.0892Z" fill="#B2B2B2"/>
<path fill-rule="evenodd" clip-rule="evenodd" d="M68.1475 8V22.3422L76.1663 24.5115V55.5225H113.368V59H72.7507V27.1857L68.1475 25.9404V59H59.3861V19.972L64.7319 21.4182V13.451L50.8118 20.0378V37.5671L56.9595 34.2223V59H47.3962V43.3683L44.7405 44.8132V59H7.36841V55.5225H41.3249V42.7286L47.3962 39.4254V17.8193L68.1475 8ZM50.8118 41.51V55.5225H53.5439V40.0236L50.8118 41.51ZM64.7319 25.0164L62.8017 24.4942V55.5225H64.7319V25.0164Z" fill="#00282E"/>
<path fill-rule="evenodd" clip-rule="evenodd" d="M66.6281 8V22.3422L74.4463 24.5115V55.5225H110.718V59H71.1161V27.1857L66.6281 25.9404V59H58.0857V19.972L63.2978 21.4182V13.451L49.7257 20.0378V37.5671L55.7197 34.2223V59H46.3955V43.3683L43.8062 44.8132V59H7.36841V55.5225H40.476V42.7286L46.3955 39.4254V17.8193L66.6281 8ZM49.7257 41.51V55.5225H52.3895V40.0236L49.7257 41.51ZM63.2978 25.0164L61.4159 24.4942V55.5225H63.2978V25.0164Z" fill="#014751"/>
</svg>
